REM DIRINDEX 1\2,1\3,1\4,1\5
REM DIRNAME "folder01","folder02","folder03","folder04","folder05"
TITLE ""
FILE "P1Q_t_0920-0929.mp3" MP3
  TRACK 01 AUDIO
    TITLE "3:cjc173_3710"
    INDEX 01 00:00:00
  TRACK 02 AUDIO
    TITLE "0:"
    INDEX 01 00:01:37
  TRACK 03 AUDIO
    TITLE "4:cjc173_3711"
    INDEX 01 00:01:59
  TRACK 04 AUDIO
    TITLE "0:"
    INDEX 01 00:03:11
  TRACK 05 AUDIO
    TITLE "5:cjc173_3712"
    INDEX 01 00:03:32
  TRACK 06 AUDIO
    TITLE "0:"
    INDEX 01 00:09:41
  TRACK 07 AUDIO
    TITLE "3:cjc173_3713"
    INDEX 01 00:10:13
  TRACK 08 AUDIO
    TITLE "0:"
    INDEX 01 00:11:26
  TRACK 09 AUDIO
    TITLE "4:cjc173_3714"
    INDEX 01 00:11:47
  TRACK 10 AUDIO
    TITLE "0:"
    INDEX 01 00:15:16
  TRACK 11 AUDIO
    TITLE "5:cjc173_3715"
    INDEX 01 00:15:37
  TRACK 12 AUDIO
    TITLE "0:"
    INDEX 01 00:19:08
  TRACK 13 AUDIO
    TITLE "3:cjc173_3716"
    INDEX 01 00:19:53
  TRACK 14 AUDIO
    TITLE "0:"
    INDEX 01 00:20:52
  TRACK 15 AUDIO
    TITLE "4:cjc173_3717"
    INDEX 01 00:21:07
  TRACK 16 AUDIO
    TITLE "0:"
    INDEX 01 00:22:51
  TRACK 17 AUDIO
    TITLE "5:cjc173_3718"
    INDEX 01 00:22:71
  TRACK 18 AUDIO
    TITLE "0:"
    INDEX 01 00:27:39
  TRACK 19 AUDIO
    TITLE "3:cjc173_3719"
    INDEX 01 00:28:13
  TRACK 20 AUDIO
    TITLE "0:"
    INDEX 01 00:29:28
  TRACK 21 AUDIO
    TITLE "4:cjc173_3720"
    INDEX 01 00:29:51
  TRACK 22 AUDIO
    TITLE "0:"
    INDEX 01 00:33:29
  TRACK 23 AUDIO
    TITLE "5:cjc173_3721"
    INDEX 01 00:33:49
  TRACK 24 AUDIO
    TITLE "0:"
    INDEX 01 00:38:15
  TRACK 25 AUDIO
    TITLE "3:cjc173_3722"
    INDEX 01 00:38:62
  TRACK 26 AUDIO
    TITLE "0:"
    INDEX 01 00:39:69
  TRACK 27 AUDIO
    TITLE "4:cjc173_3723"
    INDEX 01 00:40:16
  TRACK 28 AUDIO
    TITLE "0:"
    INDEX 01 00:43:06
  TRACK 29 AUDIO
    TITLE "5:cjc173_3724"
    INDEX 01 00:43:26
  TRACK 30 AUDIO
    TITLE "0:"
    INDEX 01 00:47:49
  TRACK 31 AUDIO
    TITLE "3:cjc173_3725"
    INDEX 01 00:48:21
  TRACK 32 AUDIO
    TITLE "0:"
    INDEX 01 00:49:24
  TRACK 33 AUDIO
    TITLE "4:cjc173_3726"
    INDEX 01 00:49:48
  TRACK 34 AUDIO
    TITLE "0:"
    INDEX 01 00:51:68
  TRACK 35 AUDIO
    TITLE "5:cjc173_3727"
    INDEX 01 00:52:13
  TRACK 36 AUDIO
    TITLE "0:"
    INDEX 01 00:56:28
  TRACK 37 AUDIO
    TITLE "3:cjc173_3728"
    INDEX 01 00:56:75
  TRACK 38 AUDIO
    TITLE "0:"
    INDEX 01 00:58:23
  TRACK 39 AUDIO
    TITLE "4:cjc173_3729"
    INDEX 01 00:58:45
  TRACK 40 AUDIO
    TITLE "0:"
    INDEX 01 01:02:49
  TRACK 41 AUDIO
    TITLE "5:cjc173_3730"
    INDEX 01 01:02:68
  TRACK 42 AUDIO
    TITLE "0:"
    INDEX 01 01:07:05
  TRACK 43 AUDIO
    TITLE "3:cjc173_3731"
    INDEX 01 01:07:54
  TRACK 44 AUDIO
    TITLE "0:"
    INDEX 01 01:08:75
  TRACK 45 AUDIO
    TITLE "4:cjc173_3732"
    INDEX 01 01:09:19
  TRACK 46 AUDIO
    TITLE "0:"
    INDEX 01 01:12:41
  TRACK 47 AUDIO
    TITLE "5:cjc173_3733"
    INDEX 01 01:12:61
  TRACK 48 AUDIO
    TITLE "0:"
    INDEX 01 01:17:66
  TRACK 49 AUDIO
    TITLE "3:cjc173_3734"
    INDEX 01 01:18:38
  TRACK 50 AUDIO
    TITLE "0:"
    INDEX 01 01:19:45
  TRACK 51 AUDIO
    TITLE "4:cjc173_3735"
    INDEX 01 01:19:67
  TRACK 52 AUDIO
    TITLE "0:"
    INDEX 01 01:23:33
  TRACK 53 AUDIO
    TITLE "5:cjc173_3736"
    INDEX 01 01:23:53
  TRACK 54 AUDIO
    TITLE "0:"
    INDEX 01 01:29:14
  TRACK 55 AUDIO
    TITLE "3:cjc173_3737"
    INDEX 01 01:29:63
  TRACK 56 AUDIO
    TITLE "0:"
    INDEX 01 01:31:07
  TRACK 57 AUDIO
    TITLE "4:cjc173_3738"
    INDEX 01 01:31:29
  TRACK 58 AUDIO
    TITLE "0:"
    INDEX 01 01:35:68
  TRACK 59 AUDIO
    TITLE "5:cjc173_3739"
    INDEX 01 01:36:12
  TRACK 60 AUDIO
    TITLE "0:"
    INDEX 01 01:41:49
